<?xml version="1.0" standalone="no"?>
<!DOCTYPE svg PUBLIC "-//W3C//DTD SVG 20010904//EN"
 "http://www.w3.org/TR/2001/REC-SVG-20010904/DTD/svg10.dtd">
<svg version="1.0" xmlns="http://www.w3.org/2000/svg"
 width="40.000000pt" height="40.000000pt" viewBox="0 0 40.000000 40.000000"
 preserveAspectRatio="xMidYMid meet">
<metadata>
Created by potrace 1.16, written by Peter Selinger 2001-2019
</metadata>
<g transform="translate(0.000000,40.000000) scale(0.100000,-0.100000)"
fill="#000000" stroke="none">
<path d="M12 388 c-27 -27 -13 -68 44 -128 53 -56 55 -59 41 -82 -14 -21 -13
-25 15 -53 17 -16 27 -23 23 -15 -4 10 -2 9 8 -2 12 -15 16 -16 33 -4 17 13
25 8 82 -45 34 -32 70 -59 78 -59 20 0 64 45 64 65 0 9 -27 45 -60 79 l-59 62
54 54 c64 63 72 82 51 115 -29 44 -71 34 -136 -30 l-56 -55 -54 55 c-42 43
-61 55 -85 55 -17 0 -36 -5 -43 -12z"/>
</g>
</svg>
