<?xml version="1.0" standalone="no"?>
<!DOCTYPE svg PUBLIC "-//W3C//DTD SVG 20010904//EN"
 "http://www.w3.org/TR/2001/REC-SVG-20010904/DTD/svg10.dtd">
<svg version="1.0" xmlns="http://www.w3.org/2000/svg"
 width="60.000000pt" height="60.000000pt" viewBox="0 0 60.000000 60.000000"
 preserveAspectRatio="xMidYMid meet">
<metadata>
Created by potrace 1.16, written by Peter Selinger 2001-2019
</metadata>
<g transform="translate(0.000000,60.000000) scale(0.100000,-0.100000)"
fill="#000000" stroke="none">
<path d="M22 577 c-15 -16 -22 -36 -22 -61 0 -35 8 -47 84 -125 l84 -86 -19
-24 c-19 -23 -27 -67 -10 -57 5 3 11 -4 15 -17 3 -12 15 -28 27 -35 15 -10 19
-10 14 -1 -5 8 -4 10 3 5 7 -4 12 -14 12 -22 0 -20 34 -17 61 5 l24 19 87 -84
c76 -73 92 -84 123 -84 49 0 85 36 85 86 0 33 -9 46 -84 123 l-85 86 85 86
c77 79 84 90 84 126 0 53 -31 83 -86 83 -36 0 -46 -7 -124 -85 l-84 -85 -87
85 c-79 78 -90 85 -126 85 -28 0 -46 -7 -61 -23z"/>
</g>
</svg>
