<?xml version="1.0" encoding="UTF-8" standalone="no"?>
<svg
   xmlns:dc="http://purl.org/dc/elements/1.1/"
   xmlns:cc="http://creativecommons.org/ns#"
   xmlns:rdf="http://www.w3.org/1999/02/22-rdf-syntax-ns#"
   xmlns:svg="http://www.w3.org/2000/svg"
   xmlns="http://www.w3.org/2000/svg"
   id="svg19"
   version="1.1"
   viewBox="0 0 24 20"
   height="20px"
   width="24px">
  <metadata
     id="metadata23">
    <rdf:RDF>
      <cc:Work
         rdf:about="">
        <dc:format>image/svg+xml</dc:format>
        <dc:type
           rdf:resource="http://purl.org/dc/dcmitype/StillImage" />
      </cc:Work>
    </rdf:RDF>
  </metadata>
  <!-- Generator: Sketch 56 (81588) - https://sketch.com -->
  <title
     id="title2">like copy</title>
  <desc
     id="desc4">Created with Sketch.</desc>
  <defs
     id="defs11">
    <linearGradient
       id="linearGradient-1"
       y2="87.3869929%"
       x2="0%"
       y1="16.6157995%"
       x1="101.983442%">
      <stop
         id="stop6"
         offset="0%"
         stop-color="#14E29A" />
      <stop
         id="stop8"
         offset="100%"
         stop-color="#58EED7" />
    </linearGradient>
  </defs>
  <g
     fill-rule="evenodd"
     fill="none"
     stroke-width="1"
     stroke="none"
     id="Web">
    <g
       fill="url(#linearGradient-1)"
       transform="translate(-786.000000, -600.000000)"
       id="Cards">
      <g
         transform="translate(570.000000, 162.000000)"
         id="Group-3-Copy">
        <g
           transform="translate(0.000000, 423.000000)"
           id="Buttons">
          <g
             id="Nope">
            <path
               id="like-copy"
               d="M236.985745,26.9872824 C236.995183,26.995676 237,27 237,27 L228,35 L219,27 C219,27 219.004864,26.9957062 219.014393,26.9873702 C217.202206,25.8338547 216,23.8073225 216,21.5 C216,17.9101491 218.910149,15 222.5,15 C224.815767,15 226.848684,16.2110222 228,18.0343141 C229.151316,16.2110222 231.184233,15 233.5,15 C237.089851,15 240,17.9101491 240,21.5 C240,23.807264 238.797855,25.8337519 236.985745,26.9872824 Z" />
          </g>
        </g>
      </g>
    </g>
  </g>
</svg>
