<?xml version="1.0" standalone="no"?>
<!DOCTYPE svg PUBLIC "-//W3C//DTD SVG 20010904//EN"
 "http://www.w3.org/TR/2001/REC-SVG-20010904/DTD/svg10.dtd">
<svg version="1.0" xmlns="http://www.w3.org/2000/svg"
 width="291.000000pt" height="102.000000pt" viewBox="0 0 291.000000 102.000000"
 preserveAspectRatio="xMidYMid meet">
<metadata>
Created by potrace 1.16, written by Peter Selinger 2001-2019
</metadata>
<g transform="translate(0.000000,102.000000) scale(0.100000,-0.100000)"
fill="#000000" stroke="none">
<path d="M410 964 c0 -61 -31 -98 -44 -51 l-6 22 -21 -25 c-29 -36 -59 -101
-59 -131 0 -60 68 -105 147 -96 124 14 140 158 32 282 -17 19 -35 35 -40 35
-5 0 -9 -16 -9 -36z"/>
<path d="M1520 755 c0 -80 -1 -145 -3 -145 -1 0 -20 9 -42 20 -57 29 -164 27
-230 -4 -78 -36 -162 -144 -166 -211 0 -11 -6 3 -13 30 -35 140 -122 208 -266
208 -88 -1 -131 -16 -190 -70 -77 -68 -84 -97 -88 -341 l-4 -212 91 0 91 0 0
194 0 194 26 31 c22 27 33 31 73 31 38 0 52 -5 72 -26 23 -25 24 -30 27 -225
l3 -199 85 0 84 0 0 123 1 122 19 -54 c11 -29 31 -69 46 -88 102 -134 318
-151 453 -37 35 30 91 119 91 147 0 9 5 17 10 17 6 0 10 -8 10 -17 0 -30 57
-119 97 -152 125 -103 331 -91 433 25 31 35 60 91 60 114 0 6 -34 10 -88 10
-82 0 -90 -2 -112 -25 -31 -33 -85 -47 -132 -35 -32 9 -67 36 -57 43 2 2 90
39 194 82 105 43 194 81 198 85 11 10 -21 98 -53 146 -95 137 -313 158 -445
42 -45 -40 -68 -74 -92 -133 -9 -24 -12 16 -12 213 l-1 242 -85 0 -85 0 0
-145z m-72 -287 c37 -23 71 -85 72 -130 0 -62 -47 -129 -107 -149 -94 -31
-193 81 -164 186 28 100 119 143 199 93z"/>
<path d="M20 514 c0 -169 4 -292 11 -319 24 -94 120 -165 225 -165 47 0 54 11
54 90 0 56 -7 66 -46 74 -59 13 -69 35 -72 167 l-4 119 56 0 56 0 0 80 0 80
-55 0 -55 0 0 75 0 75 -85 0 -85 0 0 -276z"/>
<path d="M320 335 l0 -306 88 3 87 3 3 303 2 302 -90 0 -90 0 0 -305z"/>
<path d="M2240 608 c0 -7 51 -134 113 -283 l114 -270 104 0 103 0 118 275 c64
151 117 278 118 283 0 4 -46 7 -103 7 l-103 0 -54 -147 c-29 -82 -59 -161 -65
-177 -11 -27 -15 -19 -75 148 l-63 176 -103 0 c-77 0 -104 -3 -104 -12z"/>
</g>
</svg>
