<?xml version="1.0" standalone="no"?>
<!DOCTYPE svg PUBLIC "-//W3C//DTD SVG 20010904//EN"
 "http://www.w3.org/TR/2001/REC-SVG-20010904/DTD/svg10.dtd">
<svg version="1.0" xmlns="http://www.w3.org/2000/svg"
 width="194.000000pt" height="68.000000pt" viewBox="0 0 194.000000 68.000000"
 preserveAspectRatio="xMidYMid meet">
<metadata>
Created by potrace 1.16, written by Peter Selinger 2001-2019
</metadata>
<g transform="translate(0.000000,68.000000) scale(0.100000,-0.100000)"
fill="#000000" stroke="none">
<path d="M268 638 c-2 -27 -7 -32 -25 -30 -26 4 -53 -40 -53 -87 0 -34 39 -71
76 -71 95 0 121 103 48 190 -33 38 -42 38 -46 -2z"/>
<path d="M1010 506 l0 -94 -37 14 c-52 18 -91 17 -138 -5 -47 -22 -78 -53
-104 -106 l-18 -38 -7 36 c-19 101 -147 156 -251 108 -46 -21 -79 -54 -94 -94
-6 -16 -11 -91 -11 -168 l0 -139 60 0 60 0 0 133 c0 119 2 136 19 151 12 11
31 16 52 14 50 -5 59 -32 59 -176 l0 -123 58 3 57 3 5 65 c4 50 7 59 12 39 17
-61 115 -119 198 -119 73 1 170 72 186 136 7 25 7 25 29 -17 59 -119 214 -154
320 -73 29 22 72 90 63 99 -1 2 -28 4 -59 6 -45 2 -62 -2 -84 -19 -31 -25 -87
-29 -104 -8 -10 12 10 23 115 67 80 34 129 60 133 72 5 13 20 -15 55 -100 27
-65 54 -124 59 -131 7 -9 31 -12 76 -10 l65 3 77 180 c43 99 78 184 78 188 1
4 -31 7 -70 5 l-71 -3 -38 -103 c-21 -57 -40 -106 -43 -108 -3 -3 -15 25 -28
63 -12 37 -30 87 -40 111 l-18 42 -71 0 c-38 0 -70 -2 -70 -4 0 -2 7 -20 15
-40 l16 -37 -43 44 c-67 70 -146 84 -233 43 -53 -25 -73 -43 -98 -91 -15 -29
-16 -23 -17 123 l0 152 -60 0 -60 0 0 -94z m-55 -191 c71 -34 74 -138 5 -179
-37 -21 -72 -13 -105 26 -31 37 -33 86 -4 122 18 23 46 41 67 45 2 1 19 -6 37
-14z"/>
<path d="M17 524 c-4 -4 -7 -91 -7 -193 0 -165 2 -189 20 -225 11 -23 32 -50
47 -60 32 -24 123 -35 123 -15 0 10 3 10 12 1 7 -7 36 -12 65 -12 l53 0 0 205
0 206 -57 -3 -58 -3 -3 -151 c-3 -151 -3 -152 -25 -147 -48 12 -57 31 -57 115
l0 78 35 0 35 0 0 55 0 55 -34 0 c-34 0 -35 1 -38 48 l-3 47 -50 3 c-28 2 -54
0 -58 -4z"/>
</g>
</svg>
